<svg width="130" height="22" viewBox="0 0 130 22" fill="none" xmlns="http://www.w3.org/2000/svg">
<g clip-path="url(#clip0_30224_1515)">
<path d="M-0.000183105 11.0998C-0.000183105 4.9998 3.29982 1.2998 8.69982 1.2998C12.7998 1.2998 16.0998 3.7998 16.6998 7.4998C16.7998 7.8998 16.4998 8.1998 16.0998 8.1998H13.4998C13.1998 8.1998 12.9998 7.9998 12.8998 7.6998C12.3998 5.7998 10.7998 4.5998 8.69982 4.5998C5.79982 4.5998 3.99982 7.0998 3.99982 11.0998C3.99982 15.0998 5.79982 17.5998 8.79982 17.5998C10.8998 17.5998 12.3998 16.4998 12.9998 14.6998C13.0998 14.3998 13.2998 14.1998 13.5998 14.1998H16.1998C16.5998 14.1998 16.8998 14.5998 16.7998 14.8998C16.1998 18.4998 12.9998 20.8998 8.79982 20.8998C3.29982 20.8998 -0.000183105 17.0998 -0.000183105 11.0998Z" fill="#1E212C"/>
<path d="M24.2995 20.4001H21.3995C21.0995 20.4001 20.8995 20.2001 20.8995 19.9001V2.60006C20.8995 2.20006 21.2995 1.80006 21.6995 1.80006H28.6995C32.7995 1.80006 35.2995 4.10006 35.2995 7.70006C35.2995 9.80006 34.2995 11.7001 32.5995 12.7001C32.1995 12.9001 32.0995 13.4001 32.2995 13.7001L35.3995 19.6001C35.5995 19.9001 35.2995 20.3001 34.9995 20.3001H31.6995C31.4995 20.3001 31.2995 20.2001 31.1995 20.0001L28.2995 14.0001C28.1995 13.7001 27.8995 13.6001 27.5995 13.6001H25.2995C24.9995 13.6001 24.7995 13.8001 24.7995 14.1001V20.0001C24.8995 20.2001 24.5995 20.4001 24.2995 20.4001ZM24.8995 10.2001C24.8995 10.5001 25.0995 10.7001 25.3995 10.7001H28.3995C30.3995 10.7001 31.4995 9.60006 31.4995 7.80006C31.4995 6.00006 30.2995 4.90006 28.3995 4.90006H25.4995C25.1995 4.90006 24.9995 5.10006 24.9995 5.40006V10.2001H24.8995Z" fill="#1E212C"/>
<path d="M51.4996 20.4001H40.4996C40.0996 20.4001 39.7996 20.1001 39.7996 19.7001V2.50006C39.7996 2.10006 40.0996 1.80006 40.4996 1.80006H51.4996C51.8996 1.80006 52.1996 2.10006 52.1996 2.50006V4.40006C52.1996 4.80006 51.8996 5.10006 51.4996 5.10006H44.1996C43.8996 5.10006 43.6996 5.30006 43.6996 5.60006V9.00006C43.6996 9.30006 43.8996 9.50006 44.1996 9.50006H50.9996C51.3996 9.50006 51.6996 9.80006 51.6996 10.2001V11.9001C51.6996 12.3001 51.3996 12.6001 50.9996 12.6001H44.1996C43.8996 12.6001 43.6996 12.8001 43.6996 13.1001V16.9001C43.6996 17.2001 43.8996 17.4001 44.1996 17.4001H51.4996C51.8996 17.4001 52.1996 17.7001 52.1996 18.1001V20.0001C52.1996 20.1001 51.8996 20.4001 51.4996 20.4001Z" fill="#1E212C"/>
<path d="M66.9997 15.9001H61.2997C60.9997 15.9001 60.7997 16.1001 60.6997 16.3001L59.5997 20.0001C59.4997 20.3001 59.2997 20.4001 58.9997 20.4001H56.3997C55.9997 20.4001 55.6997 20.0001 55.7997 19.6001L61.7997 2.20006C61.8997 2.00006 62.0997 1.80006 62.3997 1.80006H66.0997C66.3997 1.80006 66.5997 2.00006 66.6997 2.20006L72.6997 19.6001C72.7997 20.0001 72.4997 20.4001 72.0997 20.4001H69.1997C68.8997 20.4001 68.6997 20.2001 68.5997 20.0001L67.4997 16.3001C67.4997 16.1001 67.1997 15.9001 66.9997 15.9001ZM62.0997 13.0001H66.1997C66.3997 13.0001 66.4997 12.8001 66.4997 12.6001L64.2997 5.60006H64.0997L61.8997 12.6001C61.7997 12.8001 61.8997 13.0001 62.0997 13.0001Z" fill="#1E212C"/>
<path d="M78.9999 19.7005V5.50045C78.9999 5.20045 78.7999 5.00045 78.4999 5.00045H74.0999C73.6999 5.00045 73.2999 4.70045 73.2999 4.20045V2.50045C73.2999 2.10045 73.5999 1.70045 74.0999 1.70045H87.6999C88.0999 1.70045 88.4999 2.00045 88.4999 2.50045V4.20045C88.4999 4.60045 88.1999 5.00045 87.6999 5.00045H83.2999C82.9999 5.00045 82.7999 5.20045 82.7999 5.50045V19.8004C82.7999 20.2004 82.4999 20.5005 82.0999 20.5005H79.5999C79.2999 20.4004 78.9999 20.1005 78.9999 19.7005Z" fill="#1E212C"/>
<path d="M103.8 20.4001H92.7997C92.3997 20.4001 92.0997 20.1001 92.0997 19.7001V2.50006C92.0997 2.10006 92.3997 1.80006 92.7997 1.80006H103.8C104.2 1.80006 104.5 2.10006 104.5 2.50006V4.40006C104.5 4.80006 104.2 5.10006 103.8 5.10006H96.4997C96.1997 5.10006 95.9997 5.30006 95.9997 5.60006V9.00006C95.9997 9.30006 96.1997 9.50006 96.4997 9.50006H103.3C103.7 9.50006 104 9.80006 104 10.2001V11.9001C104 12.3001 103.7 12.6001 103.3 12.6001H96.4997C96.1997 12.6001 95.9997 12.8001 95.9997 13.1001V16.9001C95.9997 17.2001 96.1997 17.4001 96.4997 17.4001H103.8C104.2 17.4001 104.5 17.7001 104.5 18.1001V20.0001C104.5 20.1001 104.2 20.4001 103.8 20.4001Z" fill="#1E212C"/>
<path d="M117.7 9.7L111.5 1.6C111.1 1.2 110.6 1 110.1 1C109.6 1 109.1 1.2 108.7 1.6C108 2.4 108 3.6 108.7 4.4L113.6 11L108.7 17.6C108 18.4 108 19.6 108.7 20.4C109.1 20.8 109.6 21 110.1 21C110.6 21 111.1 20.8 111.5 20.4L117.7 12.3C118.4 11.7 118.4 10.5 117.7 9.7Z" fill="#FF3F3A"/>
<path d="M120.343 9.7L126.543 1.6C126.943 1.2 127.443 1 127.943 1C128.443 1 128.943 1.2 129.343 1.6C130.043 2.4 130.043 3.6 129.343 4.4L124.443 11L129.343 17.6C130.043 18.4 130.043 19.6 129.343 20.4C128.943 20.8 128.443 21 127.943 21C127.443 21 126.943 20.8 126.543 20.4L120.343 12.3C119.643 11.7 119.643 10.5 120.343 9.7Z" fill="#FF3F3A"/>
</g>
<defs>
<clipPath id="clip0_30224_1515">
<rect width="130" height="22" fill="white"/>
</clipPath>
</defs>
</svg>
